<svg class="kOqhQd" aria-hidden="true" viewBox="0 0 40 40" xmlns="http://www.w3.org/2000/svg" height="160" width="160">
  <path d="M19.7 19.2 4.3 35.3c.5 1.7 2.1 3 4 3 .8 0 1.5-.2 2.1-.6l17.4-9.9-8.1-8.6z" fill="#EA4335"/>
  <path d="m35.3 16.4-7.5-4.3-8.4 7.4 8.5 8.3 7.5-4.2c1.3-.7 2.2-2.1 2.2-3.6-.1-1.5-1-2.9-2.3-3.6z" fill="#FBBC04"/>
  <path d="M4.3 4.7c-.1.3-.1.7-.1 1.1v28.5c0 .4 0 .7.1 1.1l16-15.7-16-15z" fill="#4285F4"/>
  <path d="m19.8 20 8-7.9-17.3-9.8c-.6-.4-1.4-.6-2.2-.6-1.9 0-3.6 1.3-4 3L19.8 20z" fill="#34A853"/>
</svg>