<svg fill="none" xmlns="http://www.w3.org/2000/svg" viewBox="0 0 94 1880"  stroke-width="4">
  <rect x="2" y="2" width="90" height="90" rx="10" stroke="#073642"/>
  <rect x="41" y="41" width="12" height="12" rx="10" stroke="#268BD2"/>

  <rect x="2" y="96" width="90" height="90" rx="10" stroke="#073642"/>
	<rect x="39" y="133" width="16" height="16" rx="10" stroke="#268BD2"/>

  <rect x="2" y="190" width="90" height="90" rx="10" stroke="#073642"/>
	<rect x="37" y="227" width="20" height="20" rx="10" stroke="#268BD2"/>

  <rect x="2" y="284" width="90" height="90" rx="10" stroke="#073642"/>
  <rect x="35" y="317" width="24" height="24" rx="10" stroke="#268BD2"/>

  <rect x="2" y="378" width="90" height="90" rx="10" stroke="#073642"/>
  <rect x="33" y="409" width="28" height="28" rx="10" stroke="#268BD2"/>

  <rect x="2" y="472" width="90" height="90" rx="10" stroke="#073642"/>
  <rect x="31" y="501" width="32" height="32" rx="10" stroke="#268BD2"/>

  <rect x="2" y="566" width="90" height="90" rx="10" stroke="#073642"/>
  <rect x="29" y="593" width="36" height="36" rx="10" stroke="#268BD2"/>

  <rect x="2" y="660" width="90" height="90" rx="10" stroke="#073642"/>
  <rect x="27" y="685" width="40" height="40" rx="10" stroke="#268BD2"/>

  <rect x="2" y="754" width="90" height="90" rx="10" stroke="#073642"/>
  <rect x="25" y="777" width="44" height="44" rx="10" stroke="#268BD2"/>

  <rect x="2" y="848" width="90" height="90" rx="10" stroke="#073642"/>
  <rect x="23" y="869" width="48" height="48" rx="10" stroke="#268BD2"/>

  <rect x="2" y="942" width="90" height="90" rx="10" stroke="#073642"/>
  <rect x="21" y="961" width="52" height="52" rx="10" stroke="#268BD2"/>

  <rect x="2" y="1036" width="90" height="90" rx="10" stroke="#073642"/>
  <rect x="19" y="1053" width="56" height="56" rx="10" stroke="#268BD2"/>

  <rect x="2" y="1130" width="90" height="90" rx="10" stroke="#073642"/>
  <rect x="17" y="1145" width="60" height="60" rx="10" stroke="#268BD2"/>

  <rect x="2" y="1224" width="90" height="90" rx="10" stroke="#073642"/>
  <rect x="15" y="1237" width="64" height="64" rx="10" stroke="#268BD2"/>

  <rect x="2" y="1318" width="90" height="90" rx="10" stroke="#073642"/>
  <rect x="13" y="1329" width="68" height="68" rx="10" stroke="#268BD2"/>

  <rect x="2" y="1412" width="90" height="90" rx="10" stroke="#073642"/>
  <rect x="11" y="1421" width="72" height="72" rx="10" stroke="#268BD2"/>

  <rect x="2" y="1506" width="90" height="90" rx="10" stroke="#073642"/>
  <rect x="9" y="1513" width="76" height="76" rx="10" stroke="#268BD2"/>

  <rect x="2" y="1600" width="90" height="90" rx="10" stroke="#073642"/>
  <rect x="7" y="1605" width="80" height="80" rx="10" stroke="#268BD2"/>

  <rect x="5" y="1697" width="84" height="84" rx="10" stroke="#268BD2"/>
  <rect x="2" y="1694" width="90" height="90" rx="10" stroke="#073642"/>

  <rect x="2" y="1788" width="90" height="90" rx="10" stroke="#268BD2"/>
  <rect x="2" y="1788" width="90" height="90" rx="10" stroke="#073642"/>
</svg>
